<svg width="83" height="31" viewBox="0 0 83 31" fill="none" xmlns="http://www.w3.org/2000/svg">
<g filter="url(#filter0_d)">
<rect x="4" width="24" height="23" rx="4" fill="#1D1E22"/>
<path d="M22.7826 12.4106C22.7826 11.457 21.6392 10.5534 19.8862 9.99303C20.2907 8.12707 20.1109 6.64252 19.3187 6.16723C19.1361 6.05574 18.9226 6.00293 18.6894 6.00293V6.65719C18.8186 6.65719 18.9226 6.6836 19.0097 6.73347C19.3917 6.96232 19.5575 7.83368 19.4283 8.95443C19.3974 9.23022 19.3468 9.52067 19.285 9.81699C18.7344 9.67617 18.1332 9.56761 17.5011 9.4972C17.1218 8.95443 16.7285 8.46154 16.3324 8.03025C17.2482 7.14128 18.1079 6.65426 18.6922 6.65426V6C17.9197 6 16.9083 6.57504 15.8857 7.57257C14.8631 6.58091 13.8517 6.01174 13.0792 6.01174V6.66599C13.6607 6.66599 14.5232 7.15009 15.439 8.03319C15.0457 8.46447 14.6524 8.95443 14.2788 9.4972C13.6438 9.56761 13.0426 9.67617 12.492 9.81993C12.4274 9.52654 12.3796 9.24195 12.3459 8.9691C12.2139 7.84835 12.3768 6.97699 12.7561 6.74521C12.8404 6.6924 12.9499 6.66893 13.0792 6.66893V6.01467C12.8432 6.01467 12.6297 6.06748 12.4443 6.17897C11.6548 6.65426 11.4778 8.13587 11.8852 9.99596C10.1378 10.5593 9 11.46 9 12.4106C9 13.3641 10.1434 14.2677 11.8964 14.8281C11.4919 16.694 11.6717 18.1786 12.4639 18.6539C12.6465 18.7654 12.86 18.8182 13.096 18.8182C13.8686 18.8182 14.8799 18.2431 15.9025 17.2456C16.9251 18.2373 17.9365 18.8064 18.7091 18.8064C18.9451 18.8064 19.1586 18.7536 19.344 18.6421C20.1334 18.1669 20.3104 16.6852 19.903 14.8251C21.6448 14.2648 22.7826 13.3611 22.7826 12.4106V12.4106ZM19.1249 10.4536C19.0209 10.8321 18.8917 11.2223 18.7456 11.6125C18.6304 11.3778 18.5096 11.1431 18.3776 10.9084C18.2483 10.6737 18.1107 10.4448 17.973 10.2219C18.372 10.2835 18.7568 10.3598 19.1249 10.4536ZM17.8382 13.5782C17.6191 13.9743 17.3943 14.3499 17.1611 14.699C16.7425 14.7371 16.3183 14.7577 15.8913 14.7577C15.4671 14.7577 15.0429 14.7371 14.6271 14.7019C14.3939 14.3528 14.1664 13.9802 13.9472 13.587C13.7337 13.2027 13.5399 12.8125 13.3629 12.4194C13.5371 12.0262 13.7337 11.6331 13.9444 11.2487C14.1636 10.8527 14.3883 10.4771 14.6215 10.128C15.0401 10.0898 15.4643 10.0693 15.8913 10.0693C16.3155 10.0693 16.7397 10.0898 17.1555 10.1251C17.3887 10.4742 17.6162 10.8468 17.8354 11.2399C18.0489 11.6243 18.2427 12.0145 18.4197 12.4076C18.2427 12.8008 18.0489 13.1939 17.8382 13.5782ZM18.7456 13.1968C18.8973 13.59 19.0265 13.9831 19.1333 14.3645C18.7653 14.4584 18.3776 14.5376 17.9758 14.5992C18.1135 14.3733 18.2512 14.1416 18.3804 13.9039C18.5096 13.6692 18.6304 13.4315 18.7456 13.1968ZM15.8969 16.3273C15.6357 16.0456 15.3744 15.7317 15.1159 15.3885C15.3688 15.4002 15.6272 15.409 15.8885 15.409C16.1526 15.409 16.4138 15.4031 16.6695 15.3885C16.4167 15.7317 16.1554 16.0456 15.8969 16.3273ZM13.8068 14.5992C13.4079 14.5376 13.023 14.4613 12.655 14.3675C12.7589 13.989 12.8881 13.5988 13.0342 13.2086C13.1494 13.4433 13.2702 13.678 13.4022 13.9127C13.5343 14.1474 13.6691 14.3763 13.8068 14.5992ZM15.8829 8.49381C16.1442 8.77546 16.4054 9.08939 16.6639 9.43265C16.411 9.42092 16.1526 9.41212 15.8913 9.41212C15.6272 9.41212 15.366 9.41798 15.1103 9.43265C15.3632 9.08939 15.6244 8.77546 15.8829 8.49381ZM13.804 10.2219C13.6663 10.4478 13.5287 10.6796 13.3994 10.9172C13.2702 11.1519 13.1494 11.3866 13.0342 11.6213C12.8825 11.2282 12.7533 10.8351 12.6465 10.4536C13.0145 10.3627 13.4022 10.2835 13.804 10.2219ZM11.2615 13.8951C10.267 13.4521 9.62367 12.8712 9.62367 12.4106C9.62367 11.9499 10.267 11.3661 11.2615 10.926C11.5031 10.8175 11.7672 10.7206 12.0397 10.6297C12.1998 11.2047 12.4105 11.8032 12.6718 12.4164C12.4133 13.0267 12.2055 13.6223 12.0481 14.1944C11.77 14.1034 11.5059 14.0037 11.2615 13.8951ZM12.7729 18.0876C12.3909 17.8588 12.2251 16.9874 12.3544 15.8667C12.3853 15.5909 12.4358 15.3004 12.4976 15.0041C13.0483 15.1449 13.6495 15.2535 14.2816 15.3239C14.6608 15.8667 15.0541 16.3596 15.4502 16.7909C14.5344 17.6798 13.6747 18.1669 13.0904 18.1669C12.964 18.1639 12.8572 18.1375 12.7729 18.0876V18.0876ZM19.4367 15.852C19.5687 16.9728 19.4058 17.8441 19.0265 18.0759C18.9423 18.1287 18.8327 18.1522 18.7035 18.1522C18.1219 18.1522 17.2595 17.6681 16.3436 16.785C16.7369 16.3537 17.1302 15.8637 17.5039 15.321C18.1388 15.2506 18.74 15.142 19.2906 14.9982C19.3552 15.2946 19.4058 15.5792 19.4367 15.852V15.852ZM20.5183 13.8951C20.2767 14.0037 20.0126 14.1005 19.7401 14.1914C19.58 13.6164 19.3693 13.0179 19.108 12.4047C19.3665 11.7944 19.5744 11.1989 19.7317 10.6267C20.0098 10.7177 20.2739 10.8175 20.5211 10.926C21.5156 11.369 22.1589 11.9499 22.1589 12.4106C22.1561 12.8712 21.5128 13.455 20.5183 13.8951V13.8951Z" fill="#61DAFB"/>
<path d="M15.8885 13.7513C16.5976 13.7513 17.1724 13.151 17.1724 12.4105C17.1724 11.67 16.5976 11.0697 15.8885 11.0697C15.1795 11.0697 14.6046 11.67 14.6046 12.4105C14.6046 13.151 15.1795 13.7513 15.8885 13.7513Z" fill="#61DAFB"/>
</g>
<g filter="url(#filter1_d)">
<rect x="29" width="24" height="23" rx="4" fill="#1D1E22"/>
</g>
<g filter="url(#filter2_d)">
<rect x="55" width="24" height="23" rx="4" fill="#1D1E22"/>
</g>
<g clip-path="url(#clip0)">
<path d="M38.5005 20C39.8803 20 41 18.8053 41 17.3333V14.6667H38.5005C37.1208 14.6667 36.001 15.8613 36.001 17.3333C36.001 18.8053 37.1208 20 38.5005 20Z" fill="#0ACF83"/>
<path d="M36.001 12C36.001 10.528 37.1208 9.33333 38.5005 9.33333H41V14.6667H38.5005C37.1208 14.6667 36.001 13.472 36.001 12Z" fill="#A259FF"/>
<path d="M36.0006 6.66667C36.0006 5.19467 37.1204 4 38.5001 4H40.9996V9.33333H38.5001C37.1204 9.33333 36.0006 8.13867 36.0006 6.66667Z" fill="#F24E1E"/>
<path d="M41 4H43.4995C44.8792 4 45.999 5.19467 45.999 6.66667C45.999 8.13867 44.8792 9.33333 43.4995 9.33333H41V4Z" fill="#FF7262"/>
<path d="M45.999 12C45.999 13.472 44.8792 14.6666 43.4995 14.6666C42.1198 14.6666 41 13.472 41 12C41 10.528 42.1198 9.3333 43.4995 9.3333C44.8792 9.3333 45.999 10.528 45.999 12Z" fill="#1ABCFE"/>
</g>
<path d="M59 6C59 4.89543 59.8954 4 61 4H73C74.1046 4 75 4.89543 75 6V18C75 19.1046 74.1046 20 73 20H61C59.8954 20 59 19.1046 59 18V6Z" fill="#F7DF1E"/>
<path d="M63.207 17.3708L64.4314 16.6298C64.6676 17.0486 64.8825 17.403 65.398 17.403C65.892 17.403 66.2035 17.2097 66.2035 16.4579V11.3456H67.7071V16.4792C67.7071 18.0365 66.7942 18.7454 65.4624 18.7454C64.2596 18.7454 63.5614 18.1224 63.207 17.3707" fill="black"/>
<path d="M68.5238 17.2097L69.7481 16.5008C70.0704 17.0271 70.4892 17.4138 71.2303 17.4138C71.8533 17.4138 72.2506 17.1023 72.2506 16.6727C72.2506 16.1571 71.8425 15.9745 71.1551 15.6739L70.7793 15.5127C69.6944 15.0509 68.9748 14.471 68.9748 13.2466C68.9748 12.1188 69.834 11.2596 71.1766 11.2596C72.1325 11.2596 72.8199 11.5926 73.3138 12.4625L72.1432 13.2143C71.8854 12.7525 71.6062 12.57 71.1766 12.57C70.7363 12.57 70.457 12.8492 70.457 13.2143C70.457 13.6654 70.7363 13.848 71.3806 14.1273L71.7565 14.2884C73.0346 14.8362 73.7542 15.3946 73.7542 16.6512C73.7542 18.0045 72.6909 18.7455 71.2625 18.7455C69.8663 18.7455 68.9641 18.0797 68.5238 17.2097" fill="black"/>
<defs>
<filter id="filter0_d" x="0" y="0" width="32" height="31" filterUnits="userSpaceOnUse" color-interpolation-filters="sRGB">
<feFlood flood-opacity="0" result="BackgroundImageFix"/>
<feColorMatrix in="SourceAlpha" type="matrix" values="0 0 0 0 0 0 0 0 0 0 0 0 0 0 0 0 0 0 127 0" result="hardAlpha"/>
<feOffset dy="4"/>
<feGaussianBlur stdDeviation="2"/>
<feComposite in2="hardAlpha" operator="out"/>
<feColorMatrix type="matrix" values="0 0 0 0 0 0 0 0 0 0 0 0 0 0 0 0 0 0 0.25 0"/>
<feBlend mode="normal" in2="BackgroundImageFix" result="effect1_dropShadow"/>
<feBlend mode="normal" in="SourceGraphic" in2="effect1_dropShadow" result="shape"/>
</filter>
<filter id="filter1_d" x="25" y="0" width="32" height="31" filterUnits="userSpaceOnUse" color-interpolation-filters="sRGB">
<feFlood flood-opacity="0" result="BackgroundImageFix"/>
<feColorMatrix in="SourceAlpha" type="matrix" values="0 0 0 0 0 0 0 0 0 0 0 0 0 0 0 0 0 0 127 0" result="hardAlpha"/>
<feOffset dy="4"/>
<feGaussianBlur stdDeviation="2"/>
<feComposite in2="hardAlpha" operator="out"/>
<feColorMatrix type="matrix" values="0 0 0 0 0 0 0 0 0 0 0 0 0 0 0 0 0 0 0.25 0"/>
<feBlend mode="normal" in2="BackgroundImageFix" result="effect1_dropShadow"/>
<feBlend mode="normal" in="SourceGraphic" in2="effect1_dropShadow" result="shape"/>
</filter>
<filter id="filter2_d" x="51" y="0" width="32" height="31" filterUnits="userSpaceOnUse" color-interpolation-filters="sRGB">
<feFlood flood-opacity="0" result="BackgroundImageFix"/>
<feColorMatrix in="SourceAlpha" type="matrix" values="0 0 0 0 0 0 0 0 0 0 0 0 0 0 0 0 0 0 127 0" result="hardAlpha"/>
<feOffset dy="4"/>
<feGaussianBlur stdDeviation="2"/>
<feComposite in2="hardAlpha" operator="out"/>
<feColorMatrix type="matrix" values="0 0 0 0 0 0 0 0 0 0 0 0 0 0 0 0 0 0 0.25 0"/>
<feBlend mode="normal" in2="BackgroundImageFix" result="effect1_dropShadow"/>
<feBlend mode="normal" in="SourceGraphic" in2="effect1_dropShadow" result="shape"/>
</filter>
<clipPath id="clip0">
<rect width="10" height="16" fill="white" transform="translate(36 4)"/>
</clipPath>
</defs>
</svg>
