<svg width="606" height="81" viewBox="0 0 606 81" fill="none" xmlns="http://www.w3.org/2000/svg">
<g clip-path="url(#clip0)">
<path d="M0 50.9143C24.24 43.3061 72.72 11.3979 121.2 12.8732C169.68 14.3486 193.92 54.1832 242.4 58.2911C290.88 62.3989 315.12 31.4743 363.6 33.4125C412.08 35.3507 436.32 68.9946 484.8 67.9821C533.28 66.9696 581.76 36.2764 606 28.35V81H0V50.9143Z" fill="#5764F1"/>
<path d="M0 32.1107C40.4 36.9996 121.2 61.1261 202 56.5554C282.8 51.9846 323.2 4.57071 404 9.25714C484.8 13.9436 565.6 65.8414 606 79.9875V81H0V32.1107Z" fill="#768FEA"/>
</g>
<defs>
<clipPath id="clip0">
<rect width="606" height="81" fill="white"/>
</clipPath>
</defs>
</svg>
