<svg width="15" height="17" viewBox="0 0 15 17" fill="none" xmlns="http://www.w3.org/2000/svg">
<path d="M5.94814 7.13147C5.45957 7.13147 5.07385 7.55647 5.07385 8.07497C5.07385 8.59347 5.46814 9.01847 5.94814 9.01847C6.43671 9.01847 6.82242 8.59347 6.82242 8.07497C6.831 7.55647 6.43671 7.13147 5.94814 7.13147ZM9.07671 7.13147C8.58814 7.13147 8.20242 7.55647 8.20242 8.07497C8.20242 8.59347 8.59671 9.01847 9.07671 9.01847C9.56528 9.01847 9.951 8.59347 9.951 8.07497C9.951 7.55647 9.56528 7.13147 9.07671 7.13147Z" fill="white"/>
<path d="M13.2429 0H1.75714C0.788572 0 0 0.782 0 1.751V13.243C0 14.212 0.788572 14.994 1.75714 14.994H11.4771L11.0229 13.4215L12.12 14.433L13.1571 15.385L15 17V1.751C15 0.782 14.2114 0 13.2429 0ZM9.93429 11.101C9.93429 11.101 9.62571 10.7355 9.36857 10.4125C10.4914 10.098 10.92 9.401 10.92 9.401C10.5686 9.6305 10.2343 9.792 9.93429 9.9025C9.50571 10.081 9.09429 10.2 8.69143 10.268C7.95733 10.402 7.20446 10.3992 6.47143 10.2595C6.04108 10.176 5.61932 10.0537 5.21143 9.894C4.99642 9.81201 4.78736 9.71545 4.58571 9.605C4.56 9.588 4.53429 9.5795 4.50857 9.5625C4.49143 9.554 4.48286 9.5455 4.47429 9.537C4.32 9.452 4.23429 9.3925 4.23429 9.3925C4.23429 9.3925 4.64571 10.0725 5.73429 10.3955C5.47714 10.7185 5.16 11.101 5.16 11.101C3.26571 11.0415 2.54571 9.809 2.54571 9.809C2.54571 7.072 3.78 4.8535 3.78 4.8535C5.01429 3.9355 6.18857 3.961 6.18857 3.961L6.27429 4.063C4.73143 4.505 4.02 5.1765 4.02 5.1765C4.02 5.1765 4.20857 5.0745 4.52571 4.93C5.44286 4.5305 6.17143 4.42 6.47143 4.3945C6.52286 4.386 6.56571 4.3775 6.61714 4.3775C8.10351 4.178 9.61517 4.45814 10.9286 5.1765C10.9286 5.1765 10.2514 4.539 8.79429 4.097L8.91429 3.961C8.91429 3.961 10.0886 3.9355 11.3229 4.8535C11.3229 4.8535 12.5571 7.072 12.5571 9.809C12.5571 9.809 11.8286 11.0415 9.93429 11.101V11.101Z" fill="white"/>
</svg>
